<svg id = "design_app_icon" data-name="design app icon" xmlns="http://www.w3.org/2000/svg" width="16" height="16" viewBox="0 0 48 48">
<path id="Path_501" data-name="Path 501" d="M43 2H5a3 3 0 0 0-3 3v38a3 3 0 0 0 3 3h38a3 3 0 0 0 3-3V5a3 3 0 0 0-3-3ZM5 4h38a1 1 0 0 1 1 1v3H4V5a1 1 0 0 1 1-1Zm38 40H5a1 1 0 0 1-1-1V10h40v33a1 1 0 0 1-1 1Z" transform="translate(0 0)" fill="#0066b3"/>
<path id="Path_502" data-name="Path 502" d="M6 5h2v2H6zM10 5h2v2h-2zM14 5h2v2h-2zM15 26H9a1 1 0 0 0-1 1v6a1 1 0 0 0 1 1h6a1 1 0 0 0 1-1v-6a1 1 0 0 0-1-1zm-1 6h-4v-4h4v4zm13-6h-6a1 1 0 0 0-1 1v6a1 1 0 0 0 1 1h6a1 1 0 0 0 1-1v-6a1 1 0 0 0-1-1zm-1 6h-4v-4h4v4zm13-6h-6a1 1 0 0 0-1 1v6a1 1 0 0 0 1 1h6a1 1 0 0 0 1-1v-6a1 1 0 0 0-1-1zm-1 6h-4v-4h4v4zm1-19H9a1 1 0 0 0-1 1v8a1 1 0 0 0 1 1h30a1 1 0 0 0 1-1v-8a1 1 0 0 0-1-1zm-1 8H10v-6h28v6zM8 36h8v2H8zM8 39h8v2H8zM20 36h8v2h-8zM20 39h8v2h-8zM32 36h8v2h-8zM32 39h8v2h-8z" transform="translate(0 0)" fill="#0066b3"/>
</svg>